<svg width="79" height="80" viewBox="0 0 79 80" fill="none" xmlns="http://www.w3.org/2000/svg">
<path fill-rule="evenodd" clip-rule="evenodd" d="M73 60C72.4486 60 72 59.5514 72 59C72 58.4486 72.4486 58 73 58C73.5514 58 74 58.4486 74 59C74 59.5514 73.5514 60 73 60Z" fill="#CACAFB"/>
<path fill-rule="evenodd" clip-rule="evenodd" d="M53 2C52.4486 2 52 1.5514 52 1C52 0.448553 52.4486 0 53 0C53.5514 0 54 0.448553 54 1C54 1.5514 53.5514 2 53 2Z" fill="#CACAFB"/>
<path fill-rule="evenodd" clip-rule="evenodd" d="M1 52C0.4486 52 0 51.5514 0 51C0 50.4486 0.4486 50 1 50C1.5514 50 2 50.4486 2 51C2 51.5514 1.5514 52 1 52Z" fill="#CACAFB"/>
<path fill-rule="evenodd" clip-rule="evenodd" d="M18 9H56C56.5523 9 57 9.44772 57 10V46.0085C56.3204 46.0315 55.6527 46.1013 55 46.2147V11H19V63H43.2147C43.3336 63.6843 43.5005 64.3522 43.7118 65H18C17.4477 65 17 64.5523 17 64V10C17 9.44772 17.4477 9 18 9ZM44.535 67H26L25.8834 67.0067C25.386 67.0645 25 67.4872 25 68C25 68.5523 25.4477 69 26 69H45.7514C45.2945 68.3696 44.8872 67.7011 44.535 67ZM61 46.4252V18L60.9933 17.8834C60.9355 17.386 60.5128 17 60 17L59.8834 17.0067C59.386 17.0645 59 17.4872 59 18V46.0766C59.6818 46.1467 60.3496 46.264 61 46.4252ZM40 15C40.5523 15 41 15.4477 41 16C41 16.5128 40.614 16.9355 40.1166 16.9933L40 17H24C23.4477 17 23 16.5523 23 16C23 15.4872 23.386 15.0645 23.8834 15.0067L24 15H40ZM51 22C51 21.4477 50.5523 21 50 21H24L23.8834 21.0067C23.386 21.0645 23 21.4872 23 22C23 22.5523 23.4477 23 24 23H50L50.1166 22.9933C50.614 22.9355 51 22.5128 51 22ZM45 28C45 27.4477 44.5523 27 44 27H24L23.8834 27.0067C23.386 27.0645 23 27.4872 23 28C23 28.5523 23.4477 29 24 29H44L44.1166 28.9933C44.614 28.9355 45 28.5128 45 28ZM51 34C51 33.4477 50.5523 33 50 33H24L23.8834 33.0067C23.386 33.0645 23 33.4872 23 34C23 34.5523 23.4477 35 24 35H50L50.1166 34.9933C50.614 34.9355 51 34.5128 51 34ZM44 39C44.5523 39 45 39.4477 45 40C45 40.5128 44.614 40.9355 44.1166 40.9933L44 41H24C23.4477 41 23 40.5523 23 40C23 39.4872 23.386 39.0645 23.8834 39.0067L24 39H44Z" fill="#000091"/>
<path d="M63.2305 48.4614C63.7639 48.6043 64.0805 49.1526 63.9376 49.6861C63.7946 50.2196 63.2463 50.5362 62.7128 50.3932C56.3112 48.6779 49.7312 52.4769 48.0159 58.8785C46.3006 65.2801 50.0996 71.8601 56.5012 73.5754C62.9028 75.2907 69.4828 71.4917 71.1981 65.0901C71.7218 63.1358 71.7427 61.124 71.2823 59.201C71.1537 58.6639 71.4849 58.1242 72.022 57.9956C72.5591 57.867 73.0988 58.1982 73.2274 58.7353C73.7648 60.9802 73.7403 63.3299 73.13 65.6078C71.1288 73.0763 63.4521 77.5085 55.9835 75.5073C48.515 73.5061 44.0829 65.8294 46.0841 58.3609C48.0852 50.8923 55.762 46.4602 63.2305 48.4614Z" fill="#E1000F"/>
<path fill-rule="evenodd" clip-rule="evenodd" d="M37.0004 48C38.886 48 40.0004 49.1144 40.0004 51C40.0004 51.0818 39.9903 51.1632 39.9705 51.2425C39.4652 53.2639 37.2182 54.5777 33.2086 55.302L32.5609 55.4115C32.3401 55.4464 32.1144 55.4796 31.8838 55.5113L31.1774 55.6015C31.0573 55.6158 30.9359 55.6296 30.8132 55.6431L30.0628 55.7191L29.283 55.7858L28.4738 55.8432L27.6352 55.8916C27.493 55.8989 27.3496 55.9058 27.2049 55.9123L26.3221 55.9472L25.4099 55.9732L24.4682 55.9904L23.0004 56C22.4481 56 22.0004 55.5523 22.0004 55C22.0004 54.4477 22.4481 54 23.0004 54L23.9504 53.9957C24.1061 53.9942 24.2606 53.9924 24.4139 53.9903L25.3178 53.9732L26.191 53.9477L27.0334 53.9139L27.845 53.8721L28.6258 53.8222L29.3758 53.7644L30.095 53.699C30.2123 53.6874 30.3283 53.6755 30.443 53.6633L31.1158 53.5865C31.4445 53.5462 31.7616 53.5031 32.0671 53.4573L32.6626 53.3621L33.2271 53.2597L33.7606 53.1504C36.1782 52.6242 37.5828 51.8737 37.9642 50.9565L37.9974 50.865L37.9907 50.7471C37.9444 50.2089 37.7222 50.0245 37.1324 50.0023L37.0004 50C35.9616 50 34.8676 50.547 33.7075 51.7071C33.1049 52.3097 32.0932 51.9277 32.0063 51.1136L32.0004 51C32.0004 50.219 31.7814 50 31.0004 50C29.9616 50 28.8676 50.547 27.7075 51.7071C27.3169 52.0976 26.6838 52.0976 26.2933 51.7071C25.9027 51.3166 25.9027 50.6834 26.2933 50.2929C27.7998 48.7863 29.3725 48 31.0004 48C32.1452 48 33.0057 48.4108 33.5052 49.1556L33.5444 49.219L33.74 49.0832C34.7172 48.4231 35.7194 48.0587 36.7438 48.0065L37.0004 48Z" fill="#E1000F"/>
<line x1="56.5311" y1="65.4188" x2="69.9662" y2="51.9838" stroke="#E1000F" stroke-width="2" stroke-linecap="round"/>
<line x1="56.1522" y1="65.7979" x2="65.1522" y2="65.7979" stroke="#E1000F" stroke-width="2" stroke-linecap="round"/>
<line x1="1" y1="-1" x2="10" y2="-1" transform="matrix(0 -1 -1 0 55.1168 66.7607)" stroke="#E1000F" stroke-width="2" stroke-linecap="round"/>
</svg>
